<svg xmlns="http://www.w3.org/2000/svg" viewBox="0 0 512 512" width="100%" height="100%">
  <!-- Vellum background -->
  <rect width="512" height="512" fill="#F1EEE4" rx="100" />
  
  <!-- Outer Gold Ring -->
  <circle cx="256" cy="256" r="210" fill="none" stroke="#B8963E" stroke-width="12" />
  
  <!-- Rubric Red Seal Fill -->
  <circle cx="256" cy="256" r="198" fill="#9E1B2E" />
  
  <!-- Central Soundwave & Quill Motif (Rule Gold) -->
  <g fill="#B8963E">
    <!-- Soundwave Bars Left -->
    <rect x="116" y="244" width="10" height="24" rx="5" />
    <rect x="136" y="228" width="10" height="56" rx="5" />
    <rect x="156" y="208" width="10" height="96" rx="5" />
    <rect x="176" y="188" width="10" height="136" rx="5" />
    <rect x="196" y="168" width="10" height="176" rx="5" />

    <!-- Center Nib / Quill Icon -->
    <path d="M256 120 L292 230 L272 340 L256 380 L240 340 L220 230 Z" />
    <circle cx="256" cy="250" r="12" fill="#9E1B2E" />
    <line x1="256" y1="262" x2="256" y2="380" stroke="#9E1B2E" stroke-width="6" />

    <!-- Soundwave Bars Right -->
    <rect x="306" y="168" width="10" height="176" rx="5" />
    <rect x="326" y="188" width="10" height="136" rx="5" />
    <rect x="346" y="208" width="10" height="96" rx="5" />
    <rect x="366" y="228" width="10" height="56" rx="5" />
    <rect x="386" y="244" width="10" height="24" rx="5" />
  </g>
</svg>
